<?xml version="1.0" standalone="no"?>
<!DOCTYPE svg PUBLIC "-//W3C//DTD SVG 20010904//EN"
 "http://www.w3.org/TR/2001/REC-SVG-20010904/DTD/svg10.dtd">
<svg version="1.0" xmlns="http://www.w3.org/2000/svg"
 width="700.000000pt" height="700.000000pt" viewBox="0 0 700.000000 700.000000"
 preserveAspectRatio="xMidYMid meet">
<metadata>
Created by potrace 1.14, written by Peter Selinger 2001-2017
</metadata>
<g transform="translate(0.000000,700.000000) scale(0.100000,-0.100000)"
fill="#000000" stroke="none">
<path d="M3185 6699 c-620 -63 -1212 -305 -1700 -696 -142 -113 -376 -348
-489 -488 -396 -496 -638 -1094 -696 -1720 -13 -141 -13 -449 0 -590 86 -935
578 -1784 1350 -2332 539 -382 1177 -583 1852 -583 296 0 524 29 803 100 933
238 1722 902 2122 1784 191 421 283 854 283 1326 0 710 -221 1373 -644 1934
-444 588 -1068 1002 -1781 1181 -273 69 -424 87 -740 91 -148 1 -310 -2 -360
-7z m530 -129 c966 -72 1820 -571 2357 -1380 106 -160 259 -464 322 -642 141
-394 204 -830 177 -1229 -29 -437 -125 -797 -316 -1184 -400 -810 -1127 -1398
-2004 -1620 -293 -74 -637 -106 -932 -86 -437 29 -797 125 -1184 316 -810 400
-1398 1127 -1620 2004 -210 831 -56 1735 418 2448 305 459 709 815 1202 1058
217 108 386 171 600 225 332 84 653 114 980 90z"/>
<path d="M2243 5473 c-10 -4 -13 -408 -13 -1973 0 -1785 1 -1968 16 -1974 9
-3 469 -6 1023 -6 770 0 1010 3 1019 12 12 12 17 143 6 172 -6 14 -97 16 -930
16 l-924 0 0 1780 0 1780 1060 0 1060 0 2 -1637 3 -1638 100 0 100 0 3 1729
c2 1377 0 1731 -10 1738 -14 8 -2494 10 -2515 1z"/>
<path d="M3946 2341 c-18 -19 -26 -35 -22 -48 8 -26 1099 -1113 1117 -1113 8
0 28 13 43 29 26 27 27 30 12 57 -17 34 -1061 1077 -1093 1093 -28 14 -25 15
-57 -18z"/>
</g>
</svg>
